<svg width="25" height="24" viewBox="0 0 25 24" fill="none" xmlns="http://www.w3.org/2000/svg">
<g clip-path="url(#clip0_1374_6523)">
<path fill-rule="evenodd" clip-rule="evenodd" d="M21.8904 4.11361C22.9184 4.39038 23.7289 5.20092 24.0057 6.22892C24.5197 8.107 24.4999 12.0213 24.4999 12.0213C24.4999 12.0213 24.4999 15.9159 24.0057 17.7939C23.7289 18.8219 22.9184 19.6325 21.8904 19.9093C20.0123 20.4035 12.4999 20.4035 12.4999 20.4035C12.4999 20.4035 5.00739 20.4035 3.10954 19.8895C2.08154 19.6127 1.271 18.8022 0.994232 17.7742C0.5 15.9159 0.5 12.0015 0.5 12.0015C0.5 12.0015 0.5 8.107 0.994232 6.22892C1.271 5.20092 2.10131 4.37061 3.10954 4.09384C4.98762 3.59961 12.4999 3.59961 12.4999 3.59961C12.4999 3.59961 20.0123 3.59961 21.8904 4.11361ZM16.355 12.0015L10.1079 15.5995V8.40353L16.355 12.0015Z" fill="white"/>
</g>
<defs>
<clipPath id="clip0_1374_6523">
<rect x="0.5" width="24" height="24" rx="6" fill="white"/>
</clipPath>
</defs>
</svg>
